<svg xmlns="http://www.w3.org/2000/svg" xmlns:xlink="http://www.w3.org/1999/xlink" width="200" zoomAndPan="magnify" viewBox="0 0 150 149.999998" height="200" preserveAspectRatio="xMidYMid meet" version="1.2"><defs><clipPath id="9b12dced67"><path d="M 40 74 L 106 74 L 106 81 L 40 81 Z M 40 74 "/></clipPath><clipPath id="5652f9ea37"><path d="M 41.035156 72.957031 L 105.5 75 L 105.238281 83.246094 L 40.773438 81.203125 Z M 41.035156 72.957031 "/></clipPath><clipPath id="2f8d9be2d1"><path d="M 41.035156 72.957031 L 105.5 75 L 105.238281 83.246094 L 40.773438 81.203125 Z M 41.035156 72.957031 "/></clipPath><clipPath id="92586def1f"><path d="M 40 74 L 106 74 L 106 81 L 40 81 Z M 40 74 "/></clipPath><clipPath id="477b5276bc"><path d="M 41.035156 72.957031 L 105.5 75 L 105.238281 83.246094 L 40.773438 81.203125 Z M 41.035156 72.957031 "/></clipPath><clipPath id="4590ca8f87"><path d="M 41.035156 72.957031 L 105.5 75 L 105.238281 83.246094 L 40.773438 81.203125 Z M 41.035156 72.957031 "/></clipPath><clipPath id="173513d8ce"><path d="M 41.035156 72.957031 L 105.5 75 L 105.238281 83.246094 L 40.773438 81.203125 Z M 41.035156 72.957031 "/></clipPath><clipPath id="d8ed0b8d9e"><path d="M 40 73 L 106 73 L 106 81 L 40 81 Z M 40 73 "/></clipPath><clipPath id="b41829db04"><path d="M 40.894531 72.550781 L 105.359375 74.59375 L 105.097656 82.839844 L 40.632812 80.796875 Z M 40.894531 72.550781 "/></clipPath><clipPath id="4376d4ea08"><path d="M 40.894531 72.550781 L 105.359375 74.59375 L 105.097656 82.839844 L 40.632812 80.796875 Z M 40.894531 72.550781 "/></clipPath></defs><g id="1c46e45f70"><g clip-rule="nonzero" clip-path="url(#9b12dced67)"><g clip-rule="nonzero" clip-path="url(#5652f9ea37)"><g clip-rule="nonzero" clip-path="url(#2f8d9be2d1)"><path style=" stroke:none;fill-rule:nonzero;fill:#1275ff;fill-opacity:1;" d="M 105.039062 77.703125 C 101.3125 76.351562 97.378906 75.582031 93.417969 75.425781 C 91.441406 75.347656 89.464844 75.425781 87.5 75.648438 C 86.921875 75.714844 86.273438 75.769531 85.636719 75.886719 C 84.976562 75.171875 84 74.738281 83.023438 74.5625 C 81.230469 74.230469 79.3125 74.351562 77.515625 74.601562 C 75.632812 74.867188 73.792969 75.378906 72.039062 76.117188 C 72.015625 76.125 71.988281 76.140625 71.960938 76.152344 C 71.769531 75.792969 71.5 75.480469 71.15625 75.242188 C 70.503906 74.785156 69.707031 74.609375 68.925781 74.515625 C 65.261719 74.070312 61.417969 74.730469 58.03125 76.171875 C 57.847656 76.25 57.660156 76.332031 57.476562 76.414062 C 57.152344 76.160156 56.78125 75.960938 56.40625 75.804688 C 54.859375 75.152344 53.109375 74.871094 51.433594 74.867188 C 49.746094 74.859375 48.046875 75.144531 46.453125 75.714844 C 44.882812 76.28125 43.269531 77.105469 42.0625 78.28125 C 41.488281 78.839844 41.015625 79.507812 40.871094 80.3125 C 40.785156 80.78125 41.410156 80.710938 41.480469 80.328125 C 41.738281 78.902344 43.199219 77.988281 44.363281 77.324219 C 45.628906 76.605469 47.003906 76.101562 48.429688 75.8125 C 49.855469 75.523438 51.324219 75.457031 52.769531 75.621094 C 53.480469 75.703125 54.183594 75.839844 54.871094 76.035156 C 55.5 76.210938 56.160156 76.417969 56.71875 76.773438 C 56.320312 76.972656 55.929688 77.191406 55.5625 77.4375 C 54.914062 77.871094 54.347656 78.542969 54.402344 79.367188 C 54.53125 81.335938 57.164062 80.433594 57.976562 79.511719 C 58.507812 78.910156 58.546875 78.066406 58.230469 77.355469 C 58.152344 77.175781 58.050781 77.015625 57.933594 76.871094 C 60.445312 75.765625 63.171875 75.148438 65.914062 75.070312 C 66.695312 75.050781 67.476562 75.070312 68.25 75.132812 C 68.9375 75.191406 69.636719 75.285156 70.269531 75.570312 C 70.695312 75.761719 71.058594 76.0625 71.304688 76.441406 C 71.121094 76.527344 70.933594 76.613281 70.75 76.707031 C 70.378906 76.894531 69.992188 77.085938 69.683594 77.371094 C 69.164062 77.855469 68.925781 78.632812 69.453125 79.207031 C 69.960938 79.757812 70.761719 79.757812 71.351562 79.34375 C 71.988281 78.890625 72.316406 78.074219 72.277344 77.308594 C 72.269531 77.101562 72.234375 76.902344 72.179688 76.707031 C 73.496094 76.15625 74.867188 75.742188 76.269531 75.464844 C 77.851562 75.148438 79.472656 75.011719 81.089844 75.0625 C 82.34375 75.101562 83.808594 75.246094 84.808594 76.085938 C 83.984375 76.335938 83.25 76.753906 82.808594 77.523438 C 82.460938 78.128906 82.363281 78.960938 82.808594 79.542969 C 83.15625 79.992188 83.730469 80.191406 84.285156 80.167969 C 85.71875 80.113281 86.625 78.859375 86.410156 77.476562 C 86.351562 77.109375 86.230469 76.777344 86.0625 76.480469 C 86.476562 76.417969 86.894531 76.371094 87.304688 76.324219 C 88.960938 76.125 90.628906 76.046875 92.296875 76.070312 C 95.695312 76.121094 99.085938 76.628906 102.355469 77.578125 C 103.148438 77.808594 103.933594 78.066406 104.710938 78.347656 C 105.046875 78.46875 105.410156 77.839844 105.039062 77.703125 Z M 57.785156 78.683594 C 57.660156 79.332031 56.839844 79.699219 56.261719 79.84375 C 55.953125 79.917969 55.601562 79.9375 55.332031 79.738281 C 55.042969 79.53125 54.980469 79.152344 55.070312 78.824219 C 55.261719 78.136719 56.089844 77.777344 56.667969 77.476562 C 56.859375 77.378906 57.050781 77.28125 57.242188 77.1875 C 57.628906 77.585938 57.894531 78.121094 57.785156 78.683594 Z M 70.941406 78.910156 C 70.460938 79.125 69.570312 78.699219 69.824219 78.085938 C 69.941406 77.808594 70.265625 77.628906 70.515625 77.492188 C 70.855469 77.308594 71.207031 77.140625 71.558594 76.980469 C 71.582031 77.050781 71.601562 77.121094 71.613281 77.195312 C 71.734375 77.808594 71.570312 78.628906 70.941406 78.910156 Z M 85.007812 79.382812 C 84.582031 79.550781 84.046875 79.554688 83.648438 79.320312 C 83.136719 79.019531 83.035156 78.386719 83.269531 77.871094 C 83.566406 77.21875 84.230469 76.894531 84.890625 76.71875 C 85.027344 76.679688 85.167969 76.648438 85.304688 76.617188 C 85.894531 77.46875 86.164062 78.917969 85.007812 79.382812 Z M 85.007812 79.382812 "/></g></g></g><g clip-rule="nonzero" clip-path="url(#92586def1f)"><g clip-rule="nonzero" clip-path="url(#477b5276bc)"><g clip-rule="nonzero" clip-path="url(#4590ca8f87)"><g clip-rule="nonzero" clip-path="url(#173513d8ce)"><path style=" stroke:none;fill-rule:nonzero;fill:#000000;fill-opacity:1;" d="M 105.035156 77.808594 C 101.3125 76.410156 97.378906 75.617188 93.417969 75.457031 C 91.441406 75.378906 89.460938 75.460938 87.5 75.695312 C 86.917969 75.765625 86.273438 75.824219 85.636719 75.945312 C 84.976562 75.203125 84 74.753906 83.023438 74.570312 C 81.230469 74.230469 79.3125 74.359375 77.515625 74.621094 C 75.632812 74.898438 73.789062 75.433594 72.039062 76.199219 C 72.011719 76.210938 71.984375 76.222656 71.957031 76.234375 C 71.769531 75.863281 71.496094 75.539062 71.15625 75.292969 C 70.5 74.820312 69.707031 74.636719 68.925781 74.539062 C 65.257812 74.085938 61.414062 74.769531 58.03125 76.273438 C 57.84375 76.355469 57.65625 76.441406 57.472656 76.527344 C 57.152344 76.261719 56.777344 76.058594 56.40625 75.894531 C 54.855469 75.222656 53.109375 74.929688 51.433594 74.925781 C 49.742188 74.917969 48.042969 75.21875 46.449219 75.816406 C 44.878906 76.402344 43.261719 77.261719 42.058594 78.480469 C 41.484375 79.0625 41.007812 79.757812 40.863281 80.59375 C 40.777344 81.078125 41.402344 81.003906 41.46875 80.605469 C 41.730469 79.128906 43.191406 78.175781 44.359375 77.488281 C 45.625 76.738281 47 76.210938 48.425781 75.910156 C 49.851562 75.609375 51.320312 75.539062 52.765625 75.707031 C 53.476562 75.789062 54.179688 75.933594 54.867188 76.132812 C 55.496094 76.316406 56.15625 76.53125 56.714844 76.898438 C 56.316406 77.105469 55.925781 77.335938 55.558594 77.589844 C 54.90625 78.042969 54.339844 78.738281 54.394531 79.597656 C 54.519531 81.636719 57.152344 80.699219 57.972656 79.738281 C 58.503906 79.117188 58.539062 78.238281 58.226562 77.5 C 58.148438 77.316406 58.046875 77.148438 57.929688 77 C 60.441406 75.847656 63.171875 75.207031 65.914062 75.121094 C 66.691406 75.097656 67.472656 75.117188 68.25 75.183594 C 68.9375 75.242188 69.632812 75.339844 70.265625 75.636719 C 70.695312 75.835938 71.058594 76.144531 71.300781 76.535156 C 71.117188 76.625 70.929688 76.71875 70.746094 76.8125 C 70.375 77.007812 69.988281 77.207031 69.679688 77.503906 C 69.160156 78.007812 68.921875 78.8125 69.445312 79.410156 C 69.953125 79.980469 70.757812 79.980469 71.347656 79.550781 C 71.984375 79.082031 72.3125 78.230469 72.273438 77.433594 C 72.265625 77.222656 72.230469 77.015625 72.179688 76.8125 C 73.496094 76.238281 74.867188 75.808594 76.265625 75.515625 C 77.851562 75.1875 79.472656 75.042969 81.089844 75.09375 C 82.34375 75.132812 83.808594 75.28125 84.804688 76.152344 C 83.980469 76.414062 83.246094 76.847656 82.804688 77.648438 C 82.457031 78.277344 82.355469 79.140625 82.804688 79.742188 C 83.148438 80.207031 83.722656 80.414062 84.277344 80.390625 C 85.710938 80.332031 86.621094 79.03125 86.40625 77.59375 C 86.347656 77.210938 86.226562 76.867188 86.0625 76.5625 C 86.476562 76.496094 86.890625 76.445312 87.304688 76.394531 C 88.957031 76.1875 90.628906 76.101562 92.292969 76.128906 C 95.695312 76.175781 99.085938 76.695312 102.351562 77.679688 C 103.144531 77.917969 103.929688 78.1875 104.707031 78.476562 C 105.042969 78.601562 105.40625 77.949219 105.035156 77.808594 Z M 57.78125 78.882812 C 57.652344 79.554688 56.832031 79.9375 56.253906 80.085938 C 55.945312 80.164062 55.59375 80.183594 55.324219 79.980469 C 55.035156 79.765625 54.972656 79.371094 55.0625 79.03125 C 55.257812 78.316406 56.085938 77.945312 56.664062 77.628906 C 56.855469 77.527344 57.046875 77.425781 57.238281 77.328125 C 57.625 77.742188 57.886719 78.296875 57.78125 78.882812 Z M 70.933594 79.101562 C 70.453125 79.324219 69.5625 78.882812 69.820312 78.246094 C 69.933594 77.957031 70.261719 77.769531 70.511719 77.628906 C 70.851562 77.4375 71.203125 77.261719 71.554688 77.097656 C 71.578125 77.167969 71.597656 77.242188 71.609375 77.320312 C 71.726562 77.957031 71.566406 78.808594 70.933594 79.101562 Z M 85 79.574219 C 84.578125 79.75 84.039062 79.753906 83.640625 79.507812 C 83.132812 79.199219 83.027344 78.542969 83.265625 78.007812 C 83.5625 77.328125 84.226562 76.992188 84.886719 76.808594 C 85.023438 76.769531 85.164062 76.734375 85.304688 76.703125 C 85.890625 77.585938 86.160156 79.09375 85 79.574219 Z M 85 79.574219 "/></g></g></g></g><g clip-rule="nonzero" clip-path="url(#d8ed0b8d9e)"><g clip-rule="nonzero" clip-path="url(#b41829db04)"><g clip-rule="nonzero" clip-path="url(#4376d4ea08)"><path style=" stroke:none;fill-rule:nonzero;fill:#1275ff;fill-opacity:1;" d="M 104.898438 77.296875 C 101.171875 75.945312 97.238281 75.175781 93.277344 75.019531 C 91.300781 74.941406 89.324219 75.019531 87.359375 75.242188 C 86.78125 75.308594 86.132812 75.363281 85.496094 75.480469 C 84.835938 74.765625 83.859375 74.332031 82.882812 74.15625 C 81.089844 73.824219 79.171875 73.945312 77.375 74.195312 C 75.492188 74.460938 73.652344 74.972656 71.898438 75.710938 C 71.875 75.71875 71.847656 75.734375 71.820312 75.746094 C 71.628906 75.386719 71.359375 75.074219 71.015625 74.835938 C 70.363281 74.378906 69.566406 74.203125 68.785156 74.109375 C 65.121094 73.664062 61.277344 74.324219 57.890625 75.765625 C 57.707031 75.84375 57.519531 75.925781 57.335938 76.007812 C 57.011719 75.753906 56.640625 75.554688 56.265625 75.398438 C 54.71875 74.746094 52.96875 74.464844 51.292969 74.460938 C 49.605469 74.453125 47.90625 74.738281 46.3125 75.308594 C 44.742188 75.875 43.128906 76.699219 41.921875 77.875 C 41.347656 78.433594 40.875 79.101562 40.730469 79.90625 C 40.644531 80.375 41.269531 80.304688 41.339844 79.921875 C 41.597656 78.496094 43.058594 77.582031 44.222656 76.917969 C 45.488281 76.199219 46.863281 75.695312 48.289062 75.40625 C 49.714844 75.117188 51.183594 75.050781 52.628906 75.214844 C 53.339844 75.296875 54.042969 75.433594 54.730469 75.628906 C 55.359375 75.804688 56.019531 76.011719 56.578125 76.367188 C 56.179688 76.566406 55.789062 76.785156 55.421875 77.03125 C 54.773438 77.464844 54.207031 78.136719 54.261719 78.960938 C 54.390625 80.929688 57.023438 80.027344 57.835938 79.105469 C 58.367188 78.503906 58.40625 77.660156 58.089844 76.949219 C 58.011719 76.769531 57.910156 76.609375 57.792969 76.464844 C 60.304688 75.359375 63.03125 74.742188 65.773438 74.664062 C 66.554688 74.644531 67.335938 74.664062 68.109375 74.726562 C 68.796875 74.785156 69.496094 74.878906 70.128906 75.164062 C 70.554688 75.355469 70.917969 75.65625 71.164062 76.035156 C 70.980469 76.121094 70.792969 76.207031 70.609375 76.300781 C 70.238281 76.488281 69.851562 76.679688 69.542969 76.964844 C 69.023438 77.449219 68.785156 78.226562 69.3125 78.800781 C 69.820312 79.351562 70.621094 79.351562 71.210938 78.9375 C 71.847656 78.484375 72.175781 77.667969 72.136719 76.902344 C 72.128906 76.695312 72.09375 76.496094 72.039062 76.300781 C 73.355469 75.75 74.726562 75.335938 76.128906 75.058594 C 77.710938 74.742188 79.332031 74.605469 80.949219 74.65625 C 82.203125 74.695312 83.667969 74.839844 84.667969 75.679688 C 83.84375 75.929688 83.109375 76.347656 82.667969 77.117188 C 82.320312 77.722656 82.222656 78.554688 82.667969 79.136719 C 83.015625 79.585938 83.589844 79.785156 84.144531 79.761719 C 85.578125 79.707031 86.484375 78.453125 86.269531 77.070312 C 86.210938 76.703125 86.089844 76.371094 85.921875 76.074219 C 86.335938 76.011719 86.753906 75.964844 87.164062 75.917969 C 88.820312 75.71875 90.488281 75.640625 92.15625 75.664062 C 95.554688 75.714844 98.945312 76.222656 102.214844 77.171875 C 103.007812 77.402344 103.792969 77.660156 104.570312 77.941406 C 104.90625 78.0625 105.269531 77.433594 104.898438 77.296875 Z M 57.644531 78.277344 C 57.519531 78.925781 56.699219 79.292969 56.121094 79.4375 C 55.8125 79.511719 55.460938 79.53125 55.191406 79.332031 C 54.902344 79.125 54.839844 78.746094 54.929688 78.417969 C 55.121094 77.730469 55.949219 77.371094 56.527344 77.070312 C 56.71875 76.972656 56.910156 76.875 57.101562 76.78125 C 57.488281 77.179688 57.753906 77.714844 57.644531 78.277344 Z M 70.800781 78.503906 C 70.320312 78.71875 69.429688 78.292969 69.683594 77.679688 C 69.800781 77.402344 70.125 77.222656 70.375 77.085938 C 70.714844 76.902344 71.066406 76.734375 71.417969 76.574219 C 71.441406 76.644531 71.460938 76.714844 71.472656 76.789062 C 71.59375 77.402344 71.429688 78.222656 70.800781 78.503906 Z M 84.867188 78.976562 C 84.441406 79.144531 83.90625 79.148438 83.507812 78.914062 C 82.996094 78.613281 82.894531 77.980469 83.128906 77.464844 C 83.425781 76.8125 84.089844 76.488281 84.75 76.3125 C 84.886719 76.273438 85.027344 76.242188 85.164062 76.210938 C 85.753906 77.0625 86.023438 78.511719 84.867188 78.976562 Z M 84.867188 78.976562 "/></g></g></g></g></svg>