<svg xmlns="http://www.w3.org/2000/svg" xmlns:xlink="http://www.w3.org/1999/xlink" width="1920" zoomAndPan="magnify" viewBox="0 0 1440 809.999993" height="1080" preserveAspectRatio="xMidYMid meet" version="1.2"><defs><clipPath id="175c27eabd"><path d="M 392 398 L 1013 398 L 1013 460 L 392 460 Z M 392 398 "/></clipPath><clipPath id="c59935f52e"><path d="M 393.929688 385.375 L 1015.367188 405.097656 L 1012.9375 481.558594 L 391.5 461.835938 Z M 393.929688 385.375 "/></clipPath><clipPath id="5f21ff837e"><path d="M 393.929688 385.375 L 1015.367188 405.097656 L 1012.9375 481.558594 L 391.5 461.835938 Z M 393.929688 385.375 "/></clipPath><clipPath id="35a7404fd0"><path d="M 392 398 L 1013 398 L 1013 460 L 392 460 Z M 392 398 "/></clipPath><clipPath id="4d959045dc"><path d="M 393.929688 385.375 L 1015.367188 405.097656 L 1012.9375 481.558594 L 391.5 461.835938 Z M 393.929688 385.375 "/></clipPath><clipPath id="36b3ce519b"><path d="M 393.929688 385.375 L 1015.367188 405.097656 L 1012.9375 481.558594 L 391.5 461.835938 Z M 393.929688 385.375 "/></clipPath><clipPath id="4a18c8da3a"><path d="M 393.929688 385.375 L 1015.367188 405.097656 L 1012.9375 481.558594 L 391.5 461.835938 Z M 393.929688 385.375 "/></clipPath><clipPath id="c09ab1fa65"><path d="M 390 395 L 1012 395 L 1012 456 L 390 456 Z M 390 395 "/></clipPath><clipPath id="cd1ae34923"><path d="M 392.578125 381.472656 L 1014.015625 401.199219 L 1011.589844 477.660156 L 390.152344 457.933594 Z M 392.578125 381.472656 "/></clipPath><clipPath id="497f8daa9f"><path d="M 392.578125 381.472656 L 1014.015625 401.199219 L 1011.589844 477.660156 L 390.152344 457.933594 Z M 392.578125 381.472656 "/></clipPath></defs><g id="cfd1ebfcd6"><g clip-rule="nonzero" clip-path="url(#175c27eabd)"><g clip-rule="nonzero" clip-path="url(#c59935f52e)"><g clip-rule="nonzero" clip-path="url(#5f21ff837e)"><path style=" stroke:none;fill-rule:nonzero;fill:#1275ff;fill-opacity:1;" d="M 1010.910156 431.121094 C 974.988281 418.128906 937.058594 410.722656 898.878906 409.199219 C 879.835938 408.449219 860.761719 409.191406 841.835938 411.34375 C 836.253906 411.984375 830.019531 412.515625 823.890625 413.628906 C 817.519531 406.753906 808.085938 402.597656 798.675781 400.878906 C 781.386719 397.710938 762.902344 398.855469 745.582031 401.28125 C 727.453125 403.820312 709.695312 408.746094 692.820312 415.820312 C 692.570312 415.925781 692.304688 416.050781 692.054688 416.15625 C 690.21875 412.722656 687.601562 409.710938 684.304688 407.421875 C 677.988281 403.03125 670.3125 401.328125 662.796875 400.421875 C 627.453125 396.160156 590.414062 402.476562 557.789062 416.34375 C 556.007812 417.101562 554.210938 417.886719 552.414062 418.679688 C 549.320312 416.234375 545.726562 414.328125 542.117188 412.816406 C 527.179688 406.558594 510.332031 403.851562 494.191406 403.785156 C 477.894531 403.710938 461.515625 406.464844 446.167969 411.960938 C 431.03125 417.386719 415.464844 425.320312 403.859375 436.617188 C 398.324219 442.003906 393.773438 448.421875 392.363281 456.152344 C 391.539062 460.648438 397.554688 459.972656 398.21875 456.300781 C 400.707031 442.613281 414.800781 433.789062 426.039062 427.425781 C 438.226562 420.507812 451.476562 415.652344 465.214844 412.875 C 478.953125 410.097656 493.121094 409.484375 507.054688 411.050781 C 513.90625 411.824219 520.675781 413.152344 527.308594 415.015625 C 533.386719 416.730469 539.738281 418.710938 545.132812 422.121094 C 541.28125 424.050781 537.519531 426.15625 533.976562 428.515625 C 527.714844 432.691406 522.269531 439.140625 522.785156 447.089844 C 524.03125 466.003906 549.402344 457.328125 557.265625 448.457031 C 562.378906 442.6875 562.734375 434.554688 559.695312 427.722656 C 558.929688 426.019531 557.964844 424.46875 556.832031 423.0625 C 581.042969 412.433594 607.328125 406.523438 633.765625 405.777344 C 641.277344 405.574219 648.804688 405.761719 656.289062 406.382812 C 662.914062 406.925781 669.636719 407.832031 675.742188 410.582031 C 679.859375 412.433594 683.359375 415.300781 685.734375 418.945312 C 683.9375 419.777344 682.148438 420.625 680.386719 421.507812 C 676.800781 423.296875 673.074219 425.144531 670.113281 427.878906 C 665.085938 432.539062 662.804688 440.019531 667.882812 445.53125 C 672.765625 450.839844 680.507812 450.847656 686.1875 446.851562 C 692.332031 442.523438 695.480469 434.640625 695.105469 427.277344 C 695.007812 425.308594 694.6875 423.382812 694.175781 421.511719 C 706.855469 416.21875 720.074219 412.226562 733.5625 409.550781 C 748.847656 406.515625 764.460938 405.21875 780.039062 405.699219 C 792.132812 406.070312 806.257812 407.460938 815.886719 415.539062 C 807.945312 417.945312 800.867188 421.96875 796.605469 429.386719 C 793.265625 435.1875 792.316406 443.191406 796.625 448.777344 C 799.957031 453.097656 805.503906 455.015625 810.851562 454.800781 C 824.65625 454.261719 833.414062 442.21875 831.320312 428.90625 C 830.761719 425.378906 829.589844 422.203125 827.996094 419.347656 C 831.988281 418.742188 836.003906 418.289062 839.972656 417.824219 C 855.914062 415.933594 872.003906 415.15625 888.0625 415.40625 C 920.851562 415.902344 953.535156 420.761719 985.019531 429.902344 C 992.679688 432.125 1000.246094 434.613281 1007.738281 437.324219 C 1011 438.464844 1014.5 432.421875 1010.910156 431.121094 Z M 555.410156 440.503906 C 554.210938 446.753906 546.292969 450.285156 540.714844 451.652344 C 537.742188 452.375 534.34375 452.550781 531.75 450.664062 C 528.976562 448.648438 528.351562 445.019531 529.230469 441.871094 C 531.089844 435.230469 539.0625 431.800781 544.644531 428.902344 C 546.46875 427.945312 548.320312 427.027344 550.183594 426.125 C 553.902344 429.9375 556.449219 435.085938 555.410156 440.503906 Z M 682.21875 442.710938 C 677.582031 444.773438 669.003906 440.671875 671.457031 434.769531 C 672.570312 432.097656 675.722656 430.367188 678.128906 429.0625 C 681.40625 427.285156 684.789062 425.675781 688.183594 424.128906 C 688.386719 424.800781 688.574219 425.488281 688.710938 426.195312 C 689.851562 432.101562 688.285156 440 682.21875 442.710938 Z M 817.804688 447.25 C 813.726562 448.875 808.550781 448.894531 804.707031 446.636719 C 799.792969 443.75 798.785156 437.683594 801.046875 432.726562 C 803.921875 426.441406 810.316406 423.332031 816.6875 421.621094 C 818.011719 421.265625 819.347656 420.949219 820.695312 420.660156 C 826.378906 428.847656 828.960938 442.796875 817.804688 447.25 Z M 817.804688 447.25 "/></g></g></g><g clip-rule="nonzero" clip-path="url(#35a7404fd0)"><g clip-rule="nonzero" clip-path="url(#4d959045dc)"><g clip-rule="nonzero" clip-path="url(#36b3ce519b)"><g clip-rule="nonzero" clip-path="url(#4a18c8da3a)"><path style=" stroke:none;fill-rule:nonzero;fill:#000000;fill-opacity:1;" d="M 1010.910156 431.121094 C 974.988281 418.128906 937.058594 410.722656 898.878906 409.199219 C 879.835938 408.449219 860.761719 409.191406 841.835938 411.34375 C 836.253906 411.984375 830.019531 412.515625 823.890625 413.628906 C 817.519531 406.753906 808.085938 402.597656 798.675781 400.878906 C 781.386719 397.710938 762.902344 398.855469 745.582031 401.28125 C 727.453125 403.820312 709.695312 408.746094 692.820312 415.820312 C 692.570312 415.925781 692.304688 416.050781 692.054688 416.15625 C 690.21875 412.722656 687.601562 409.710938 684.304688 407.421875 C 677.988281 403.03125 670.3125 401.328125 662.796875 400.421875 C 627.453125 396.160156 590.414062 402.476562 557.789062 416.34375 C 556.007812 417.101562 554.210938 417.886719 552.414062 418.679688 C 549.320312 416.234375 545.726562 414.328125 542.117188 412.816406 C 527.179688 406.558594 510.332031 403.851562 494.191406 403.785156 C 477.894531 403.710938 461.515625 406.464844 446.167969 411.960938 C 431.03125 417.386719 415.464844 425.320312 403.859375 436.617188 C 398.324219 442.003906 393.773438 448.421875 392.363281 456.152344 C 391.539062 460.648438 397.554688 459.972656 398.21875 456.300781 C 400.707031 442.613281 414.800781 433.789062 426.039062 427.425781 C 438.226562 420.507812 451.476562 415.652344 465.214844 412.875 C 478.953125 410.097656 493.121094 409.484375 507.054688 411.050781 C 513.90625 411.824219 520.675781 413.152344 527.308594 415.015625 C 533.386719 416.730469 539.738281 418.710938 545.132812 422.121094 C 541.28125 424.050781 537.519531 426.15625 533.976562 428.515625 C 527.714844 432.691406 522.269531 439.140625 522.785156 447.089844 C 524.03125 466.003906 549.402344 457.328125 557.265625 448.457031 C 562.378906 442.6875 562.734375 434.554688 559.695312 427.722656 C 558.929688 426.019531 557.964844 424.46875 556.832031 423.0625 C 581.042969 412.433594 607.328125 406.523438 633.765625 405.777344 C 641.277344 405.574219 648.804688 405.761719 656.289062 406.382812 C 662.914062 406.925781 669.636719 407.832031 675.742188 410.582031 C 679.859375 412.433594 683.359375 415.300781 685.734375 418.945312 C 683.9375 419.777344 682.148438 420.625 680.386719 421.507812 C 676.800781 423.296875 673.074219 425.144531 670.113281 427.878906 C 665.085938 432.539062 662.804688 440.019531 667.882812 445.53125 C 672.765625 450.839844 680.507812 450.847656 686.1875 446.851562 C 692.332031 442.523438 695.480469 434.640625 695.105469 427.277344 C 695.007812 425.308594 694.6875 423.382812 694.175781 421.511719 C 706.855469 416.21875 720.074219 412.226562 733.5625 409.550781 C 748.847656 406.515625 764.460938 405.21875 780.039062 405.699219 C 792.132812 406.070312 806.257812 407.460938 815.886719 415.539062 C 807.945312 417.945312 800.867188 421.96875 796.605469 429.386719 C 793.265625 435.1875 792.316406 443.191406 796.625 448.777344 C 799.957031 453.097656 805.503906 455.015625 810.851562 454.800781 C 824.65625 454.261719 833.414062 442.21875 831.320312 428.90625 C 830.761719 425.378906 829.589844 422.203125 827.996094 419.347656 C 831.988281 418.742188 836.003906 418.289062 839.972656 417.824219 C 855.914062 415.933594 872.003906 415.15625 888.0625 415.40625 C 920.851562 415.902344 953.535156 420.761719 985.019531 429.902344 C 992.679688 432.125 1000.246094 434.613281 1007.738281 437.324219 C 1011 438.464844 1014.5 432.421875 1010.910156 431.121094 Z M 555.410156 440.503906 C 554.210938 446.753906 546.292969 450.285156 540.714844 451.652344 C 537.742188 452.375 534.34375 452.550781 531.75 450.664062 C 528.976562 448.648438 528.351562 445.019531 529.230469 441.871094 C 531.089844 435.230469 539.0625 431.800781 544.644531 428.902344 C 546.46875 427.945312 548.320312 427.027344 550.183594 426.125 C 553.902344 429.9375 556.449219 435.085938 555.410156 440.503906 Z M 682.21875 442.710938 C 677.582031 444.773438 669.003906 440.671875 671.457031 434.769531 C 672.570312 432.097656 675.722656 430.367188 678.128906 429.0625 C 681.40625 427.285156 684.789062 425.675781 688.183594 424.128906 C 688.386719 424.800781 688.574219 425.488281 688.710938 426.195312 C 689.851562 432.101562 688.285156 440 682.21875 442.710938 Z M 817.804688 447.25 C 813.726562 448.875 808.550781 448.894531 804.707031 446.636719 C 799.792969 443.75 798.785156 437.683594 801.046875 432.726562 C 803.921875 426.441406 810.316406 423.332031 816.6875 421.621094 C 818.011719 421.265625 819.347656 420.949219 820.695312 420.660156 C 826.378906 428.847656 828.960938 442.796875 817.804688 447.25 Z M 817.804688 447.25 "/></g></g></g></g><g clip-rule="nonzero" clip-path="url(#c09ab1fa65)"><g clip-rule="nonzero" clip-path="url(#cd1ae34923)"><g clip-rule="nonzero" clip-path="url(#497f8daa9f)"><path style=" stroke:none;fill-rule:nonzero;fill:#1275ff;fill-opacity:1;" d="M 1009.558594 427.222656 C 973.640625 414.230469 935.707031 406.820312 897.527344 405.300781 C 878.484375 404.546875 859.410156 405.289062 840.488281 407.445312 C 834.90625 408.082031 828.671875 408.613281 822.539062 409.730469 C 816.167969 402.855469 806.734375 398.699219 797.328125 396.980469 C 780.035156 393.8125 761.554688 394.953125 744.230469 397.382812 C 726.101562 399.921875 708.34375 404.84375 691.46875 411.921875 C 691.21875 412.023438 690.953125 412.152344 690.703125 412.257812 C 688.867188 408.824219 686.25 405.8125 682.953125 403.519531 C 676.640625 399.128906 668.964844 397.429688 661.449219 396.523438 C 626.105469 392.261719 589.0625 398.574219 556.4375 412.445312 C 554.65625 413.203125 552.859375 413.984375 551.0625 414.78125 C 547.96875 412.335938 544.375 410.429688 540.769531 408.917969 C 525.828125 402.660156 508.980469 399.949219 492.84375 399.882812 C 476.542969 399.8125 460.164062 402.566406 444.816406 408.058594 C 429.679688 413.488281 414.117188 421.421875 402.507812 432.71875 C 396.976562 438.105469 392.421875 444.523438 391.011719 452.25 C 390.1875 456.746094 396.207031 456.074219 396.867188 452.398438 C 399.359375 438.710938 413.449219 429.890625 424.691406 423.523438 C 436.875 416.605469 450.125 411.75 463.863281 408.972656 C 477.605469 406.195312 491.769531 405.582031 505.707031 407.152344 C 512.554688 407.925781 519.328125 409.25 525.957031 411.117188 C 532.035156 412.832031 538.390625 414.8125 543.78125 418.222656 C 539.929688 420.148438 536.171875 422.253906 532.628906 424.613281 C 526.363281 428.789062 520.917969 435.242188 521.433594 443.191406 C 522.679688 462.101562 548.050781 453.429688 555.914062 444.558594 C 561.027344 438.789062 561.386719 430.65625 558.34375 423.824219 C 557.582031 422.117188 556.613281 420.566406 555.484375 419.160156 C 579.691406 408.535156 605.980469 402.621094 632.414062 401.878906 C 639.925781 401.671875 647.453125 401.863281 654.941406 402.484375 C 661.5625 403.027344 668.285156 403.933594 674.390625 406.683594 C 678.507812 408.53125 682.007812 411.398438 684.382812 415.046875 C 682.585938 415.878906 680.800781 416.722656 679.039062 417.609375 C 675.449219 419.398438 671.726562 421.242188 668.765625 423.980469 C 663.734375 428.640625 661.453125 436.117188 666.53125 441.628906 C 671.417969 446.9375 679.160156 446.949219 684.835938 442.953125 C 690.980469 438.625 694.128906 430.742188 693.757812 423.375 C 693.660156 421.410156 693.335938 419.484375 692.824219 417.613281 C 705.503906 412.316406 718.726562 408.324219 732.214844 405.652344 C 747.496094 402.613281 763.109375 401.320312 778.691406 401.800781 C 790.78125 402.171875 804.910156 403.558594 814.539062 411.640625 C 806.597656 414.042969 799.519531 418.070312 795.257812 425.484375 C 791.914062 431.285156 790.964844 439.289062 795.273438 444.875 C 798.605469 449.195312 804.15625 451.113281 809.5 450.902344 C 823.304688 450.363281 832.0625 438.320312 829.96875 425.003906 C 829.414062 421.476562 828.238281 418.300781 826.644531 415.445312 C 830.640625 414.84375 834.65625 414.390625 838.621094 413.921875 C 854.5625 412.03125 870.65625 411.257812 886.714844 411.507812 C 919.5 412.003906 952.1875 416.859375 983.671875 426.003906 C 991.332031 428.222656 998.894531 430.714844 1006.390625 433.421875 C 1009.648438 434.5625 1013.148438 428.519531 1009.558594 427.222656 Z M 554.0625 436.601562 C 552.859375 442.855469 544.945312 446.382812 539.363281 447.753906 C 536.390625 448.472656 532.992188 448.648438 530.402344 446.761719 C 527.628906 444.746094 527 441.117188 527.878906 437.972656 C 529.738281 431.332031 537.714844 427.902344 543.292969 425.003906 C 545.121094 424.046875 546.96875 423.128906 548.832031 422.222656 C 552.550781 426.039062 555.101562 431.183594 554.0625 436.601562 Z M 680.867188 438.808594 C 676.230469 440.875 667.652344 436.773438 670.105469 430.867188 C 671.21875 428.199219 674.371094 426.46875 676.777344 425.160156 C 680.054688 423.386719 683.4375 421.777344 686.832031 420.226562 C 687.035156 420.902344 687.222656 421.585938 687.363281 422.296875 C 688.5 428.203125 686.9375 436.097656 680.867188 438.808594 Z M 816.457031 443.347656 C 812.378906 444.972656 807.199219 444.996094 803.355469 442.734375 C 798.445312 439.847656 797.433594 433.785156 799.699219 428.828125 C 802.574219 422.542969 808.964844 419.433594 815.335938 417.71875 C 816.660156 417.367188 817.996094 417.050781 819.34375 416.757812 C 825.03125 424.949219 827.609375 438.894531 816.457031 443.347656 Z M 816.457031 443.347656 "/></g></g></g></g></svg>